<svg id="fire" viewBox="0 0 24 24" fill="none" xmlns="http://www.w3.org/2000/svg">
    <g clip-path="url(#clip0_96_11818)">
        <path d="M8.36674 7.2321C8.11406 8.1522 7.76056 9.79705 8.18871 10.5992C8.18871 10.5992 8.24937 8.73454 10.983 6.86362C12.0836 6.11048 12.5209 4.89927 12.3584 3.90437C12.2658 3.34066 12.003 2.84215 11.7616 2.48385C11.621 2.27342 11.8057 1.99978 12.0546 2.05477C13.5599 2.39 15.9445 3.2452 16.527 6.05148C16.7826 7.28333 16.6067 8.47876 16.1749 9.6497C15.9002 10.3977 15.105 12.0282 16.1911 12.4371C16.9663 12.7292 17.4663 12.1605 17.7211 11.7326C17.8271 11.5546 18.0863 11.5511 18.1948 11.7273C19.2773 13.5064 19.0729 15.3409 18.5174 16.8534C17.4434 19.777 13.9985 21.4352 10.9609 20.8996C7.16635 20.2305 4.5286 17.5267 4.43833 13.4586C4.40262 11.8165 5.11616 8.70565 7.9535 6.92124C8.16438 6.78707 8.43531 6.98716 8.36674 7.2321Z" fill="#FFAE79"/>
        <path d="M13.611 13.9782C12.5297 11.9312 13.5182 9.98737 14.0057 9.22925C14.0709 9.12968 13.9657 9.00641 13.8571 9.05549C13.1832 9.35871 11.7808 10.1046 10.9678 11.3591C9.86762 13.0547 9.76483 13.9616 10.0317 15.1383C10.1923 15.8473 9.84603 15.9306 9.68011 15.9267C9.51882 15.9237 9.39263 15.7935 9.29648 15.6639C9.02127 15.2902 8.85521 14.8373 8.81948 14.374C8.81168 14.2743 8.69165 14.2261 8.62088 14.2946C8.08503 14.8141 7.69341 15.7303 7.56353 16.404C7.16149 18.4861 8.58798 20.4829 10.6745 20.8508C13.3043 21.3145 15.7329 18.744 14.6505 16.0463C14.3367 15.2612 14.006 14.7253 13.611 13.9782Z" fill="#FFD5BA"/>
    </g>
    <defs>
        <clipPath id="clip0_96_11818">
            <rect width="20" height="20" fill="white" transform="translate(4) rotate(10)"/>
        </clipPath>
    </defs>
</svg>
