<svg id="ic_arrow_up" viewBox="0 0 20 20" xmlns="http://www.w3.org/2000/svg">
    <path d="M15.0584 8.59995C14.9001 8.59995 14.7418 8.54162 14.6168 8.41662L10.0001 3.79995L5.38343 8.41662C5.14176 8.65828 4.74176 8.65828 4.5001 8.41662C4.25843 8.17495 4.25843 7.77495 4.5001 7.53328L9.55843 2.47495C9.8001 2.23328 10.2001 2.23328 10.4418 2.47495L15.5001 7.53328C15.7418 7.77495 15.7418 8.17495 15.5001 8.41662C15.3834 8.54162 15.2168 8.59995 15.0584 8.59995Z"/>
    <path d="M10 17.7084C9.65833 17.7084 9.375 17.425 9.375 17.0834V3.05835C9.375 2.71668 9.65833 2.43335 10 2.43335C10.3417 2.43335 10.625 2.71668 10.625 3.05835V17.0834C10.625 17.425 10.3417 17.7084 10 17.7084Z"/>
</svg>
