<svg viewBox="0 0 20 20" xmlns="http://www.w3.org/2000/svg" id="ic_arrow">
    <path d="M14.1667 5C13.9167 5 13.75 5.08333 13.5833 5.25L5.25 13.5833C4.91667 13.9167 4.91667 14.4167 5.25 14.75C5.58333 15.0833 6.08333 15.0833 6.41667 14.75L14.75 6.41667C15.0833 6.08333 15.0833 5.58333 14.75 5.25C14.5833 5.08333 14.4167 5 14.1667 5Z"/>
    <path d="M14.1663 5.00081H6.66634C6.16634 5.00081 5.83301 5.33414 5.83301 5.83414C5.83301 6.33414 6.16634 6.66748 6.66634 6.66748H13.333V13.3341C13.333 13.8341 13.6663 14.1675 14.1663 14.1675C14.6663 14.1675 14.9997 13.8341 14.9997 13.3341V5.83414C14.9997 5.33414 14.6663 5.00081 14.1663 5.00081Z"/>
</svg>
