<svg id="ic_crown" viewBox="0 0 36 24" xmlns="http://www.w3.org/2000/svg">
    <path fill-rule="evenodd" clip-rule="evenodd" d="M17.4886 0.502983C18.2439 0.455571 18.9162 0.978167 19.0566 1.72178C19.3794 3.4317 19.9467 5.03125 20.7096 6.27681C21.4772 7.53019 22.3706 8.31416 23.3098 8.62769C24.2015 8.92537 25.3865 8.88327 26.9663 7.9694C28.58 7.03599 30.5325 5.22647 32.787 2.12689C33.2319 1.51515 34.0627 1.33044 34.725 1.69603C35.3872 2.06162 35.6736 2.86311 35.393 3.56559C34.4182 6.00623 32.4159 11.9467 32.0633 16.3402C31.9971 17.166 31.2739 17.7817 30.4482 17.7154C29.6224 17.6492 29.0067 16.926 29.0729 16.1003C29.2463 13.9391 29.7668 11.4955 30.3796 9.22747C29.7312 9.75932 29.0942 10.2043 28.4685 10.5662C26.3179 11.8102 24.2391 12.1007 22.3598 11.4733C20.528 10.8618 19.1431 9.46301 18.1513 7.84368C18.1195 7.79175 18.088 7.73948 18.0569 7.68688C17.6785 8.73861 17.2021 9.62502 16.6283 10.3526C15.1542 12.2218 13.1778 12.8689 11.1632 12.7305C10.1736 12.6624 9.17782 12.4077 8.21139 12.0359C8.41037 12.5721 8.58388 13.1094 8.73471 13.6413C9.30303 15.6455 9.56984 17.6415 9.65104 19.3514C17.7756 14.9075 23.6937 15.5614 26.5144 16.591C27.2926 16.875 27.6931 17.7362 27.4091 18.5144C27.125 19.2926 26.2639 19.6932 25.4857 19.4091C23.3758 18.6389 17.5586 17.762 8.92818 23.2648C8.44757 23.5713 7.83481 23.5788 7.34678 23.2843C6.85875 22.9898 6.5798 22.4442 6.62688 21.8762C6.76841 20.1682 6.65791 17.314 5.84851 14.4597C5.27071 12.4221 4.36384 10.475 3.01679 8.93193C2.26512 8.3327 1.56864 7.712 0.952078 7.10997C0.39642 6.56741 0.346769 5.69045 0.837637 5.08864C1.3285 4.48683 2.19755 4.35921 2.84072 4.79448C3.6852 5.36598 4.4289 6.02351 5.08315 6.74092C5.73192 7.24711 6.41853 7.72849 7.1203 8.15268C8.6418 9.07236 10.1167 9.65145 11.3689 9.73752C12.5358 9.81771 13.4951 9.48088 14.2726 8.49493C15.1237 7.41576 15.8708 5.41156 16.0854 1.9083C16.1317 1.15296 16.7334 0.550395 17.4886 0.502983Z"/>
</svg>
