<svg viewBox="0 0 79 9" id="ic_line" xmlns="http://www.w3.org/2000/svg">
    <path fill-rule="evenodd" clip-rule="evenodd" d="M17.8457 4.5995C11.4907 5.40908 6.17952 6.66497 2.64668 8.35341C1.89923 8.71064 1.00371 8.3943 0.646483 7.64685C0.289257 6.8994 0.605595 6.00388 1.35305 5.64666C5.3202 3.75065 11.009 2.4462 17.4666 1.62356C23.9546 0.797024 31.3367 0.442974 38.7629 0.507418C53.5634 0.635857 68.7676 2.42938 77.5098 5.58936C78.2889 5.87098 78.6921 6.73085 78.4105 7.50994C78.1289 8.28904 77.2691 8.69232 76.49 8.41071C68.2321 5.4258 53.4363 3.63487 38.7368 3.50731C31.413 3.44375 24.1701 3.79381 17.8457 4.5995Z"/>
</svg>
