<svg id="ic_market" viewBox="0 0 40 40" fill="none" xmlns="http://www.w3.org/2000/svg">
    <path opacity="0.4" d="M32.0668 9.30006H31.4002L25.7668 3.66672C25.3168 3.21672 24.5835 3.21672 24.1168 3.66672C23.6668 4.11672 23.6668 4.85006 24.1168 5.31672L28.1002 9.30006H11.9002L15.8835 5.31672C16.3335 4.86672 16.3335 4.13339 15.8835 3.66672C15.4335 3.21672 14.7002 3.21672 14.2335 3.66672L8.61683 9.30006H7.95016C6.45016 9.30006 3.3335 9.30006 3.3335 13.5667C3.3335 15.1834 3.66683 16.2501 4.36683 16.9501C4.76683 17.3667 5.25016 17.5834 5.76683 17.7001C6.25016 17.8167 6.76683 17.8334 7.26683 17.8334H32.7335C33.2502 17.8334 33.7335 17.8001 34.2002 17.7001C35.6002 17.3667 36.6668 16.3667 36.6668 13.5667C36.6668 9.30006 33.5502 9.30006 32.0668 9.30006Z" fill="white"/>
    <path d="M32.7499 17.8333H7.2666C6.78327 17.8333 6.24993 17.8167 5.7666 17.6833L7.8666 30.5C8.33327 33.3667 9.58327 36.6667 15.1333 36.6667H24.4833C30.0999 36.6667 31.0999 33.85 31.6999 30.7L34.2166 17.6833C33.7499 17.8 33.2499 17.8333 32.7499 17.8333ZM19.9999 30.8334C16.0999 30.8334 12.9166 27.65 12.9166 23.75C12.9166 23.0667 13.4833 22.5 14.1666 22.5C14.8499 22.5 15.4166 23.0667 15.4166 23.75C15.4166 26.2834 17.4666 28.3334 19.9999 28.3334C22.5333 28.3334 24.5833 26.2834 24.5833 23.75C24.5833 23.0667 25.1499 22.5 25.8333 22.5C26.5166 22.5 27.0833 23.0667 27.0833 23.75C27.0833 27.65 23.8999 30.8334 19.9999 30.8334Z" fill="white"/>
</svg>
