<svg id="ic_profile" viewBox="0 0 40 40" fill="none" xmlns="http://www.w3.org/2000/svg">
    <path d="M20.1167 14.9167C20.0501 14.9167 19.9501 14.9167 19.8667 14.9167C18.1167 14.8501 16.7334 13.4334 16.7334 11.6667C16.7334 9.86675 18.1834 8.41675 19.9834 8.41675C21.7834 8.41675 23.2334 9.88341 23.2334 11.6667C23.2501 13.4334 21.8667 14.8667 20.1167 14.9167Z" fill="white"/>
    <path d="M15.4169 19.9333C13.2002 21.4167 13.2002 23.8333 15.4169 25.3167C17.9336 27 22.0669 27 24.5836 25.3167C26.8002 23.8333 26.8002 21.4167 24.5836 19.9333C22.0669 18.2667 17.9502 18.2667 15.4169 19.9333Z" fill="white"/>
    <path opacity="0.4" d="M30 3.33325H10C7.23333 3.33325 5 5.54992 5 8.28325V26.4666C5 29.1999 7.23333 31.4166 10 31.4166H11.2667C12.6 31.4166 13.8667 31.9333 14.8 32.8666L17.65 35.6833C18.95 36.9666 21.0667 36.9666 22.3667 35.6833L25.2167 32.8666C26.15 31.9333 27.4333 31.4166 28.75 31.4166H30C32.7667 31.4166 35 29.1999 35 26.4666V8.28325C35 5.54992 32.7667 3.33325 30 3.33325ZM20 8.41659C21.8 8.41659 23.25 9.88325 23.25 11.6666C23.25 13.4333 21.85 14.8499 20.1167 14.9166C20.05 14.9166 19.95 14.9166 19.8667 14.9166C18.1167 14.8499 16.7333 13.4333 16.7333 11.6666C16.75 9.88325 18.2 8.41659 20 8.41659ZM24.5833 25.3166C22.0667 26.9999 17.9333 26.9999 15.4167 25.3166C13.2 23.8499 13.2 21.4166 15.4167 19.9333C17.95 18.2499 22.0833 18.2499 24.5833 19.9333C26.8 21.4166 26.8 23.8333 24.5833 25.3166Z" fill="white"/>
</svg>
