<svg id="ic_recommendations" viewBox="0 0 40 40" fill="none" xmlns="http://www.w3.org/2000/svg">
    <path opacity="0.4" d="M36.6667 14.1999V6.63325C36.6667 4.28325 35.6 3.33325 32.95 3.33325H26.2167C23.5667 3.33325 22.5 4.28325 22.5 6.63325V14.1833C22.5 16.5499 23.5667 17.4833 26.2167 17.4833H32.95C35.6 17.4999 36.6667 16.5499 36.6667 14.1999Z" fill="white"/>
    <path d="M36.6667 32.95V26.2167C36.6667 23.5667 35.6 22.5 32.95 22.5H26.2167C23.5667 22.5 22.5 23.5667 22.5 26.2167V32.95C22.5 35.6 23.5667 36.6667 26.2167 36.6667H32.95C35.6 36.6667 36.6667 35.6 36.6667 32.95Z" fill="white"/>
    <path d="M17.5002 14.1999V6.63325C17.5002 4.28325 16.4335 3.33325 13.7835 3.33325H7.05016C4.40016 3.33325 3.3335 4.28325 3.3335 6.63325V14.1833C3.3335 16.5499 4.40016 17.4833 7.05016 17.4833H13.7835C16.4335 17.4999 17.5002 16.5499 17.5002 14.1999Z" fill="white"/>
    <path opacity="0.4" d="M17.5002 32.95V26.2167C17.5002 23.5667 16.4335 22.5 13.7835 22.5H7.05016C4.40016 22.5 3.3335 23.5667 3.3335 26.2167V32.95C3.3335 35.6 4.40016 36.6667 7.05016 36.6667H13.7835C16.4335 36.6667 17.5002 35.6 17.5002 32.95Z" fill="white"/>
</svg>
